<?xml version="1.0" standalone="no"?>
<!DOCTYPE svg PUBLIC "-//W3C//DTD SVG 20010904//EN"
 "http://www.w3.org/TR/2001/REC-SVG-20010904/DTD/svg10.dtd">
<svg version="1.0" xmlns="http://www.w3.org/2000/svg"
 width="640.000000pt" height="640.000000pt" viewBox="0 0 640.000000 640.000000"
 preserveAspectRatio="xMidYMid meet">
<metadata>
Created by potrace 1.11, written by Peter Selinger 2001-2013
</metadata>
<g transform="translate(0.000000,640.000000) scale(0.100000,-0.100000)"
fill="#000000" stroke="none">
<path d="M3020 6393 c-1126 -63 -2139 -721 -2661 -1728 -533 -1027 -465 -2268
176 -3235 124 -187 232 -318 404 -491 136 -135 361 -329 383 -329 5 0 8 750 8
1668 0 1410 2 1687 15 1794 49 418 191 757 434 1032 229 260 536 430 919 510
211 44 292 51 592 51 297 0 389 -9 605 -56 151 -34 495 -136 512 -152 1 -2
-30 -138 -71 -303 -41 -164 -97 -394 -126 -511 l-51 -211 -59 24 c-87 35 -219
72 -350 97 -97 18 -149 21 -330 21 -243 0 -305 -11 -449 -80 -95 -46 -210
-158 -259 -251 -65 -125 -102 -337 -102 -595 l0 -118 660 0 c582 0 660 -2 660
-15 0 -8 -43 -189 -95 -403 -52 -213 -109 -447 -127 -519 l-32 -133 -533 0
-533 0 0 -1204 0 -1204 108 -16 c722 -109 1473 33 2089 395 133 79 278 178
394 270 134 106 392 364 498 498 480 606 721 1330 698 2096 -22 710 -259 1353
-705 1915 -101 127 -362 387 -492 489 -622 492 -1394 738 -2180 694z"/>
</g>
</svg>
