<svg id="Layer_1" xmlns="http://www.w3.org/2000/svg" viewBox="0 0 100 100"><style>.st0{fill:#003d7d}</style><path class="st0" d="M38.5 50C44.8 50 50 44.8 50 38.5S44.8 27 38.5 27 27 32.2 27 38.5 32.2 50 38.5 50zm0-19.1c4.2 0 7.6 3.4 7.6 7.6s-3.4 7.6-7.6 7.6c-4.2 0-7.6-3.4-7.6-7.6s3.4-7.6 7.6-7.6z"/><path class="st0" d="M38 40c1.1 0 2-.9 2-2s-.9-2-2-2-2 .9-2 2 .9 2 2 2z"/><path class="st0" d="M94.1 53.1H66.5c1-2 1.8-4 2.4-6.2h6.8c1.1 0 2-.9 2-2V32.7c0-1.1-.9-2-2-2h-6.8c-.7-2.6-1.7-5.1-3.1-7.4l4.8-4.8c.8-.8.8-2 0-2.8L62 7c-.8-.8-2-.8-2.8 0l-4.8 4.8c-2.3-1.4-4.8-2.4-7.4-3.1V2c0-1.1-.9-2-2-2H32.7c-1.1 0-2 .9-2 2v6.8c-2.6.7-5.1 1.7-7.4 3.1L18.5 7c-.8-.8-2-.8-2.8 0L7 15.7c-.8.8-.8 2 0 2.8l4.8 4.8c-1.3 2.3-2.4 4.8-3.1 7.4H2c-1.1 0-2 .9-2 2V45c0 1.1.9 2 2 2h6.8c.7 2.6 1.7 5.1 3.1 7.4L7 59.2c-.8.8-.8 2 0 2.8l8.7 8.7c.8.8 2 .8 2.8 0l4.8-4.8c2.3 1.4 4.8 2.4 7.4 3.1v6.8c0 1.1.9 2 2 2h8.7v16.5c0 3.2 2.6 5.9 5.9 5.9h25.4c1.1 0 2-.9 2-2s-.9-2-2-2H47.3c-1.1 0-2-.9-2-2V59c0-1.1.9-2 2-2h46.9c1.1 0 2 .9 2 2v35.2c0 1.1-.9 2-2 2h-3.9c-1.1 0-2 .9-2 2s.9 2 2 2h3.9c3.2 0 5.9-2.6 5.9-5.9V59c-.1-3.2-2.7-5.9-6-5.9zM34.6 73.8v-6.4c0-.9-.6-1.7-1.5-1.9-3.2-.7-6.3-2-9-3.7-.8-.5-1.8-.4-2.4.3l-4.5 4.5-5.9-5.9 4.5-4.5c.7-.7.8-1.7.3-2.4-1.8-2.8-3.1-5.8-3.7-9-.2-.9-1-1.5-1.9-1.5H3.9v-8.4h6.4c.9 0 1.7-.6 1.9-1.5.7-3.2 2-6.3 3.7-9 .5-.8.4-1.8-.3-2.4l-4.5-4.5 5.9-5.9 4.5 4.5c.7.6 1.7.8 2.4.3 2.8-1.8 5.8-3.1 9-3.7.9-.2 1.5-1 1.5-1.9V3.9H43v6.4c0 .9.6 1.7 1.5 1.9 3.2.7 6.3 2 9 3.7.8.5 1.8.4 2.4-.3l4.5-4.5 5.9 5.9-4.3 4.6c-.7.7-.8 1.7-.3 2.4 1.8 2.8 3.1 5.8 3.7 9 .2.9 1 1.5 1.9 1.5h6.4V43h-6.4c-.9 0-1.7.6-1.9 1.5-.6 3-1.8 5.9-3.4 8.5H51.9c3.9-3.5 6.3-8.6 6.3-14.3 0-10.7-8.7-19.4-19.4-19.4-1.7 0-3.3.2-4.9.6-1 .3-1.7 1.3-1.4 2.4s1.3 1.7 2.4 1.4c1.3-.3 2.6-.5 3.9-.5 8.5 0 15.4 6.9 15.4 15.4S47.3 54 38.8 54s-15.4-6.9-15.4-15.4c0-1.3.2-2.6.5-3.9.3-1-.4-2.1-1.4-2.4-1-.3-2.1.4-2.4 1.4-.4 1.6-.6 3.2-.6 4.9 0 10.7 8.7 19.4 19.3 19.4.9 0 1.8-.1 2.7-.2-.1.3-.1.6-.1 1v14.8c0 .2-6.8.2-6.8.2z"/><path class="st0" d="M73 65.2v-2.3c0-1.1-.9-1.9-2-1.9s-2 .9-2 1.9v2.3c-2.3.8-4 3-4 5.5v3.9c0 2.5 1.7 4.7 4 5.5v10c0 1.1.9 1.9 2 1.9s2-.9 2-1.9V80c2.3-.8 4-3 4-5.5v-3.9c0-2.4-1.7-4.6-4-5.4zm-4 5.5c0-1.1.9-1.9 2-1.9s2 .9 2 1.9v3.9c0 1.1-.9 1.9-2 1.9s-2-.9-2-1.9v-3.9zm24 11.6v-3.9c0-2.5-1.7-4.7-4-5.5v-10c0-1.1-.9-1.9-2-1.9s-2 .9-2 1.9v10c-2.3.8-4 3-4 5.5v3.9c0 2.5 1.7 4.7 4 5.5v2.3c0 1.1.9 1.9 2 1.9s2-.9 2-1.9v-2.3c2.3-.8 4-3 4-5.5zm-8-3.9c0-1.1.9-1.9 2-1.9s2 .9 2 1.9v3.9c0 1.1-.9 1.9-2 1.9s-2-.9-2-1.9v-3.9zM55 92c1.1 0 2-.9 2-1.9v-2.3c2.3-.8 4-3 4-5.5v-3.9c0-2.5-1.7-4.7-4-5.5v-10c0-1.1-.9-1.9-2-1.9s-2 .9-2 1.9v10c-2.3.8-4 3-4 5.5v3.9c0 2.5 1.7 4.7 4 5.5v2.3c0 1 .9 1.9 2 1.9zm-2-13.6c0-1.1.9-1.9 2-1.9s2 .9 2 1.9v3.9c0 1.1-.9 1.9-2 1.9s-2-.9-2-1.9v-3.9zM27 29c1.1 0 2-.9 2-2 0-.5-.2-1-.6-1.4-.8-.8-2-.8-2.8 0-.8.8-.8 2 0 2.8.4.4.9.6 1.4.6zm55 67c-1.1 0-2 .8-2 2s.8 2 2 2h.1c1.1 0 2-.9 2-2-.2-1.1-1-2-2.1-2z"/></svg>