<svg enable-background="new 0 0 93 92" viewBox="0 0 93 92" xmlns="http://www.w3.org/2000/svg"><path d="m7.9 43.8h29.1v5.5c0 .7.6 1.3 1.3 1.3h16.5c.7 0 1.3-.6 1.3-1.3v-5.5h27.9c.7 0 1.3-.6 1.3-1.3v-41.2c0-.7-.6-1.3-1.3-1.3h-76.1c-.7 0-1.3.6-1.3 1.3v41.3c0 .6.6 1.2 1.3 1.2zm45.6 4.3h-14v-4.3h14zm1.3-6.8h-45.7v-4.9h73.5v4.9zm27.8-38.7v31.3h-73.5v-31.3zm-65.3 16.6c0-5.8 4.7-10.5 10.5-10.5v10.5h10.5c0 5.8-4.7 10.5-10.5 10.5s-10.5-4.7-10.5-10.5zm36.2 10.5v-8.5c0-.7.6-1.3 1.3-1.3s1.3.6 1.3 1.3v8.5c0 .7-.6 1.3-1.3 1.3-.7-.1-1.3-.6-1.3-1.3zm4 0v-11.7c0-.7.6-1.3 1.3-1.3s1.2.6 1.2 1.3v11.7c0 .7-.6 1.3-1.3 1.3-.7-.1-1.2-.6-1.2-1.3zm3.9 0v-16.3c0-.7.6-1.3 1.3-1.3s1.3.6 1.3 1.3v16.3c0 .7-.6 1.3-1.3 1.3-.7-.1-1.3-.6-1.3-1.3zm4 0v-17.1c0-.7.6-1.3 1.3-1.3s1.3.6 1.3 1.3v17.1c0 .7-.6 1.3-1.3 1.3-.7-.1-1.3-.6-1.3-1.3zm4 0v-21.8c0-.7.6-1.3 1.3-1.3s1.3.6 1.3 1.3v21.7c0 .7-.6 1.3-1.3 1.3s-1.3-.5-1.3-1.2zm23.5 44.6-7.8-20.9c-.2-.5-.7-.8-1.2-.8h-74.9c-.5 0-1 .3-1.2.8l-7.7 20.9c-.1.2-.1.3-.1.5v8.1c0 .7.6 1.3 1.3 1.3h1.8c-1.3 3.3-2.3 6-2.3 6.1-.3.7.1 1.4.7 1.7.7.3 1.4-.1 1.6-.7 0-.1 4.4-11.3 6.2-16.5 1.7-5.4 7.1-6.5 10.5-5.5 1 .3 4.1 1.5 3.1 4.7-1.8 5.3-5.3 16.4-5.3 16.5-.2.7.2 1.4.8 1.6.1 0 .2.1.4.1.5 0 1-.4 1.2-.9 0-.1 1-3.2 2.2-6.9h48.4c.7 2.3 1.5 4.6 2.2 6.9.2.7.9 1 1.6.8s1-.9.8-1.6c0-.1-3.5-11.2-5.3-16.4-.9-3.3 2.2-4.5 3.1-4.8 3.3-1 8.8.1 10.5 5.5 1.8 5.2 6.2 16.4 6.2 16.5.2.7 1 1 1.6.8.7-.2 1-1 .8-1.6 0 0 0 0 0-.1s-1.1-2.8-2.3-6.1h1.8c.7 0 1.3-.6 1.3-1.3v-8.1c.1-.3.1-.4 0-.6zm-90.4 7.3v-5.6h3.6c-.7 1.9-1.4 3.7-2.1 5.6zm18.1-14.9c-2.2-.6-4.5-.6-6.8.1l2.4-6s.8-1.6 4.7-1.6c3.8 0 5.2.4 5.2.4h.2s.8.2 1.1.7c.4.6.1 1.6-.2 2.3-.2.7.1 1.4.8 1.6.6.2 1.3-.1 1.6-.7.2-.6.4-1.2.4-1.7 1.2.1 1.6.4 1.7.5.4.5 0 2-.3 3.7l-.2 1.1c-.5 2.8-4.8 2.7-6.4 2.6-.7-1.3-2.2-2.4-4.2-3zm49.3 14.9h-46.8c.6-1.9 1.2-3.7 1.8-5.6h43.1c.6 1.7 1.2 3.6 1.9 5.6zm2.5-14.9c-2 .6-3.5 1.7-4.3 3.2-1.6.1-5.8.2-6.4-2.6l-.2-1.1c-.3-1.7-.7-3.3-.3-3.7.1-.1.5-.4 1.7-.5.1.5.2 1.1.4 1.7.3.7 1 1 1.6.7s1-1 .7-1.6c-.3-.7-.5-1.7-.2-2.3s1.1-.7 1.1-.7h.2s1.5-.4 5.2-.4c3.9 0 4.7 1.5 4.7 1.5l2.4 6c-2-.8-4.4-.8-6.6-.2zm10.3 2.1-3.6-8.9c-.1-.3-1.3-3.2-7.1-3.2-3.8 0-5.5.4-5.9.5s-1.9.5-2.8 1.9c0 .1-.1.2-.1.2-2 .1-3.3.5-4 1.4-1.1 1.4-.8 3.3-.2 5.8l.2 1.1c.7 3.7 4.5 4.7 7.7 4.7h.5v1h-41.8c0-.3 0-.7 0-1h.5c3.1 0 6.9-1 7.7-4.7l.2-1.1c.5-2.6.9-4.5-.2-5.8-.8-.9-2-1.3-4-1.4 0-.1 0-.2-.1-.2-.8-1.5-2.3-1.9-2.8-1.9-.4-.1-2.1-.5-5.9-.5-5.8 0-7 2.9-7.1 3.1l-3.6 8.9c-1.4 1.2-2.5 2.7-3.2 4.7h-4l6.8-18.4h73.2l6.8 18.4h-4c-.7-1.9-1.8-3.4-3.2-4.6zm6.2 12.8c-.7-1.9-1.5-3.9-2.1-5.6h3.6v5.6z" fill="#e5b401"/></svg>