<svg xmlns="http://www.w3.org/2000/svg" viewBox="0 0 97 86"><path fill="#FE8200" d="M54.1 58.9c-.6.6-1.1 1.2-1.5 2l-4.9 8.5c-.3.5-.2 1.2.2 1.7.5.4 1.1.5 1.7.2l8.7-4.7c.7-.4 1.4-.9 2-1.5l35.8-35c1.1-1.1 1.1-2.9.1-4l-.1-.1-2.1-2.1c-.6-.5-1.3-.8-2.1-.8s-1.5.3-2.1.8L69.7 43.7V7.3c0-4-3.4-7.3-7.5-7.3H7.5C3.4 0 0 3.3 0 7.3v59.4c0 .8.6 1.4 1.4 1.4h4.7v16.4c0 .8.6 1.4 1.4 1.4h60.7c.8 0 1.4-.6 1.4-1.4V64.3c0-.8-.6-1.4-1.4-1.4-.8 0-1.4.6-1.4 1.4v18.9H15v-1.6c0-.8-.6-1.4-1.4-1.4-.8 0-1.4.6-1.4 1.4v1.6H8.9V11.8c0-.1 0-.1.1-.1h3.1v64c0 .8.6 1.4 1.4 1.4.8 0 1.4-.6 1.4-1.4v-64H59c.8 0 1.4-.6 1.4-1.4 0-.8-.6-1.4-1.4-1.4H15V7.3c0-1.7-.6-3.3-1.6-4.6h48.8c2.6 0 4.7 2 4.7 4.6v1.6h-1.6c-.8 0-1.4.6-1.4 1.4 0 .8.6 1.4 1.4 1.4h1.6v34.8L54.1 58.9zm-42-50H9c-1.6 0-2.9 1.3-2.9 2.9v53.6H2.8V7.3c0-2.5 2.1-4.6 4.7-4.6s4.7 2 4.7 4.6l-.1 1.6zM57 64.1l-4.4 2.4 2.4-4.3c.1-.2.3-.4.4-.6l2.2 2.1c-.2.2-.4.3-.6.4zm34.8-38.2c.1 0 .1 0 0 0h.1L94 28v.1l-2.2 2.2-2.3-2.2 2.3-2.2zM87.6 30l2.3 2.2-30.2 29.6-2.3-2.2L87.6 30z"/><path fill="#FE8200" d="M57.6 24H24.4c-.8 0-1.4.7-1.4 1.5s.6 1.5 1.4 1.5h33.2c.8 0 1.4-.7 1.4-1.5s-.6-1.5-1.4-1.5zm0 7H24.4c-.8 0-1.4.7-1.4 1.5s.6 1.5 1.4 1.5h33.2c.8 0 1.4-.7 1.4-1.5s-.6-1.5-1.4-1.5zm0 7H24.4c-.8 0-1.4.7-1.4 1.5s.6 1.5 1.4 1.5h33.2c.8 0 1.4-.7 1.4-1.5s-.6-1.5-1.4-1.5zm0 7H24.4c-.8 0-1.4.7-1.4 1.5s.6 1.5 1.4 1.5h33.2c.8 0 1.4-.7 1.4-1.5s-.6-1.5-1.4-1.5zm-9 8H24.4c-.8 0-1.4.7-1.4 1.5s.6 1.5 1.4 1.5h24.2c.8 0 1.4-.7 1.4-1.5s-.6-1.5-1.4-1.5z"/></svg>