<svg enable-background="new 0 0 102 98" viewBox="0 0 102 98" xmlns="http://www.w3.org/2000/svg"><g fill="#016c60"><path d="m100 66.6c-1.3-1.1-2.9-1.5-4.5-1.2l-32.6 5.6v-11.6c2.5-.2 7.1-.9 10.3-4.1 4.5-4.5 4.1-11.8 4.1-12.1 0-.9-.7-1.6-1.6-1.6-.3 0-7.6-.4-12.1 4.1-.3.3-.5.5-.7.8v-5.8c2.5-.2 7.1-.9 10.3-4.1 4.5-4.5 4.1-11.8 4.1-12.1 0-.9-.7-1.6-1.6-1.6-.3 0-7.6-.4-12.1 4.1-.3.3-.5.5-.7.8v-5l9.5-9.3c1.6-1.5 2.4-3.5 2.4-5.6s-.8-4.1-2.4-5.6c-3.1-3-8.1-3-11.2-.1-3.1-3-8.1-3-11.2.1-1.5 1.5-2.4 3.5-2.4 5.6s.8 4.1 2.4 5.6l9.5 9.3v5c-.2-.3-.5-.5-.7-.8-4.5-4.5-11.8-4.1-12.1-4.1-.9 0-1.6.7-1.6 1.6 0 .3-.4 7.6 4.1 12.1 3.2 3.2 7.8 3.9 10.3 4.1v5.8c-.2-.3-.5-.5-.7-.8-4.5-4.5-11.8-4.1-12.1-4.1-.9 0-1.6.7-1.6 1.6 0 .3-.4 7.6 4.1 12.1 3.2 3.2 7.8 3.9 10.3 4.1v9.5l-7.3-7.3c-.3-.3-.8-.5-1.2-.5h-17c0-.9-.8-1.7-1.7-1.7h-32.3v3.4h23.8v23.8h-23.8v3.4h32.3c.9 0 1.7-.8 1.7-1.7h4.7l18.2 9.1c1.7.8 3.7.8 5.3-.2l37.1-21.6c1.7-1 2.8-2.8 2.8-4.8-.1-1.6-.8-3.2-2.1-4.2zm-34-18.5c2.3-2.3 5.8-2.9 7.9-3.1-.2 2.1-.8 5.6-3.1 7.9s-5.8 2.9-7.9 3.1c.2-2.1.8-5.6 3.1-7.9zm0-18.7c2.3-2.3 5.8-2.9 7.9-3.1-.2 2.1-.8 5.6-3.1 7.9s-5.8 2.9-7.9 3.1c.2-2 .8-5.6 3.1-7.9zm-14.4 4.8c-2.3-2.3-2.9-5.8-3.1-7.9 2.1.2 5.6.8 7.9 3.1s2.9 5.8 3.1 7.9c-2.1-.1-5.6-.8-7.9-3.1zm0 18.7c-2.3-2.3-2.9-5.8-3.1-7.9 2.1.2 5.6.8 7.9 3.1s2.9 5.8 3.1 7.9c-2.1-.2-5.6-.8-7.9-3.1zm-21 33.7h-3.4v-23.8h3.4zm21.7-75.6c-.9-.8-1.3-2-1.3-3.2s.5-2.3 1.3-3.2c.9-.9 2.1-1.3 3.3-1.3s2.4.4 3.3 1.3l1.1 1.2c.7.6 1.7.6 2.4 0l1.1-1.1c1.8-1.8 4.7-1.8 6.6 0 1.7 1.7 1.8 4.5.1 6.2 0 0-.1.1-.1.1l-8.9 8.7s-8.9-8.7-8.9-8.7zm45.2 61.7-37.1 21.6c-.6.4-1.4.4-2 .1l-18.5-9.3c-.2-.1-.5-.2-.8-.2h-5.1v-20.4h16.3l13.4 13.4c.6.6.9 1.4.9 2.2 0 1.7-1.4 3.1-3.1 3.1-.8 0-1.6-.3-2.2-.9l-8.8-8.8-2.4 2.4 8.8 8.8c1.2 1.2 2.9 1.9 4.6 1.9 3.6 0 6.5-2.9 6.5-6.5 0-1.7-.7-3.4-1.9-4.6l-1.4-1.4 31.4-5.4c.6-.1 1.3.1 1.8.5.9.8 1 2.1.3 3-.3.2-.5.4-.7.5z"/><path d="m35.8 5h-3.5c0 2.9-2.4 5.2-5.2 5.2v3.5c2.9 0 5.2 2.4 5.2 5.2h3.5c0-2.9 2.4-5.2 5.2-5.2v-3.5c-2.9 0-5.2-2.3-5.2-5.2zm-1.8 8.8c-.5-.7-1.1-1.3-1.8-1.8.7-.5 1.3-1.1 1.8-1.8.5.7 1.1 1.3 1.8 1.8-.7.5-1.3 1.1-1.8 1.8zm-8.2 14.2h-3.5c0 2.9-2.4 5.2-5.2 5.2v3.5c2.9 0 5.2 2.4 5.2 5.2h3.5c0-2.9 2.4-5.2 5.2-5.2v-3.5c-2.9 0-5.2-2.3-5.2-5.2zm-1.8 8.8c-.5-.7-1.1-1.3-1.8-1.8.7-.5 1.3-1.1 1.8-1.8.5.7 1.1 1.3 1.8 1.8-.7.5-1.3 1.1-1.8 1.8zm66.8-24.8h-3.5c0 2.9-2.4 5.2-5.2 5.2v3.5c2.9 0 5.2 2.4 5.2 5.2h3.5c0-2.9 2.4-5.2 5.2-5.2v-3.5c-2.9 0-5.2-2.3-5.2-5.2zm-1.8 8.8c-.5-.7-1.1-1.3-1.8-1.8.7-.5 1.3-1.1 1.8-1.8.5.7 1.1 1.3 1.8 1.8-.7.5-1.3 1.1-1.8 1.8z"/></g></svg>