<svg viewBox="0 0 640 640" xmlns="http://www.w3.org/2000/svg" xmlns:xlink="http://www.w3.org/1999/xlink"><linearGradient id="a" gradientUnits="userSpaceOnUse" x1="97.261" x2="542.738" y1="97.261" y2="542.738"><stop offset="0" stop-color="#02a694"/><stop offset=".244" stop-color="#0a726e"/><stop offset=".477" stop-color="#11494f"/><stop offset=".687" stop-color="#152b38"/><stop offset=".866" stop-color="#18182b"/><stop offset=".994" stop-color="#191226"/></linearGradient><path d="m320 635c-84.1 0-163.2-32.8-222.7-92.3s-92.3-138.6-92.3-222.7 32.8-163.2 92.3-222.7 138.6-92.3 222.7-92.3 163.2 32.8 222.7 92.3 92.3 138.6 92.3 222.7-32.8 163.2-92.3 222.7-138.6 92.3-222.7 92.3z" fill="url(#a)"/><g fill="#fff"><path d="m320 10c171.2 0 310 138.8 310 310s-138.8 310-310 310-310-138.8-310-310 138.8-310 310-310m0-10c-43.2 0-85.1 8.5-124.6 25.2-38.1 16.1-72.3 39.2-101.7 68.6s-52.5 63.6-68.6 101.7c-16.6 39.4-25.1 81.3-25.1 124.5s8.5 85.1 25.2 124.6c16.1 38.1 39.2 72.3 68.6 101.7s63.6 52.5 101.7 68.6c39.4 16.6 81.3 25.1 124.5 25.1s85.1-8.5 124.6-25.2c38.1-16.1 72.3-39.2 101.7-68.6s52.5-63.6 68.6-101.7c16.6-39.4 25.1-81.3 25.1-124.5s-8.5-85.1-25.2-124.6c-16.1-38.1-39.2-72.3-68.6-101.7s-63.6-52.5-101.7-68.6c-39.4-16.6-81.3-25.1-124.5-25.1z"/><path d="m328.4 81c-62.7 0-109.8 16.7-141.6 50.1-31.8 33.2-47.8 78-47.8 134.5v306.1c36.2 26.1 78.3 44.6 124 53.1v-233.2h102.8l4-15.9 21.3-87h-128.1v-21.5c0-11.7 1.1-22.4 3.7-32.5 2.3-10.1 6.6-18.8 12.3-25.8 5.7-7.1 13.7-12.8 24-16.9s22.9-6.2 37.7-6.2c11 0 23.1 1.1 36.1 3.7 12.9 2.5 24.9 6.1 35.8 11.1l24.2-98.8c-10.5-4.3-25.2-8.8-44.5-13.6-19.3-4.9-40.6-7.2-63.9-7.2z"/></g></svg>