<svg enable-background="new 0 0 999.7 286.7" viewBox="0 0 999.7 286.7" xmlns="http://www.w3.org/2000/svg"><g fill="#fff"><path d="m310.7 275.3c-9.2 2.7-21.1 5.1-35.6 7.4s-29.8 3.4-45.8 3.4c-16.2 0-29.7-2.2-40.5-6.5-10.8-4.4-19.3-10.5-25.6-18.3-6.3-7.9-10.8-17.2-13.4-28.1-2.7-10.9-4-22.9-4-36v-106.4h54.2v99.9c0 17.4 2.3 30 6.9 37.8 4.6 7.7 13.2 11.6 25.8 11.6 3.9 0 8-.2 12.3-.5 4.4-.4 8.2-.8 11.6-1.3v-147.5h54.1z"/><path d="m355.3 97.4c9.2-2.7 21.1-5.1 35.6-7.4s29.8-3.5 45.8-3.5c16.2 0 29.7 2.1 40.5 6.4 10.8 4.2 19.3 10.2 25.6 18s10.8 17 13.4 27.6c2.7 10.7 4 22.5 4 35.6v107.9h-54.1v-101.5c0-17.4-2.3-29.8-6.9-37-4.6-7.3-13.2-10.9-25.8-10.9-3.9 0-8 .2-12.3.5-4.4.4-8.2.8-11.6 1.3v147.4h-54.1v-184.4z"/><path d="m731.7 275.7c-4.8 1.5-10.4 2.8-16.7 4.2-6.3 1.3-12.9 2.5-19.8 3.5s-13.9 1.8-21.1 2.4c-7.1.6-14 .9-20.5.9-15.7 0-29.8-2.3-42.1-6.9s-22.8-11.2-31.2-19.8c-8.5-8.6-15-19-19.4-31.2-4.5-12.2-6.7-26-6.7-41.2 0-15.5 1.9-29.5 5.8-41.9 3.9-12.5 9.4-23.1 16.7-31.8s16.2-15.4 26.7-20 22.6-6.9 36.1-6.9c7.5 0 14.2.7 20.2 2.2 5.9 1.5 11.9 3.5 18 6.2v-86.4l54.1-8.7zm-122.3-90.8c0 16.7 3.7 30.1 11.3 40.3 7.5 10.2 18.6 15.3 33.4 15.3 4.8 0 9.3-.2 13.4-.5 4.1-.4 7.5-.8 10.2-1.3v-98.4c-3.4-2.2-7.8-4-13.3-5.4-5.4-1.5-11-2.2-16.5-2.2-25.7-.1-38.5 17.3-38.5 52.2z"/><path d="m110.5 90.8h-56.4v-9.4c0-5.1.5-9.8 1.6-14.2s2.9-8.1 5.4-11.3c2.5-3.1 6-5.6 10.5-7.4s10-2.7 16.5-2.7c4.8 0 10.1.5 15.8 1.6s11 2.7 15.8 4.9l10.5-43.2c-4.6-1.9-11.1-3.9-19.6-6s-17.8-3.1-28-3.1c-27.4 0-48 7.3-61.9 21.8-13.7 14.6-20.7 34.2-20.7 58.9v201.2h54.1v-146h45.4z"/><path d="m835.7 35.6c0 9.9-3.2 17.7-9.6 23.4s-14 8.5-22.7 8.5-16.3-2.8-22.7-8.5-9.6-13.5-9.6-23.4 3.2-17.7 9.6-23.4 14-8.5 22.7-8.5 16.3 2.8 22.7 8.5 9.6 13.5 9.6 23.4zm-5.1 246.2h-54.1v-191h54.1z"/><path d="m992.1 234.4c-5 1.9-10.5 3.4-16.6 4.4-6.2 1.1-12.2 1.6-18 1.6-12.1 0-20.2-3.4-24.2-10.2s-6-15.9-6-27.2v-67.2h46.8l-8.2-45h-38.6v-56.3l-54.1 8.7v160.5c0 12.3 1.1 23.6 3.5 33.8 2.3 10.2 6.4 18.8 12.2 26 5.8 7.1 13.6 12.7 23.2 16.7 9.7 4 21.9 6 36.7 6 11.6 0 21.4-1 29.4-2.9 7.9-1.9 15.1-4.2 21.5-6.8z"/></g></svg>